<?xml version="1.0" encoding="iso-8859-1"?>
<!-- Uploaded to: SVG Repo, www.svgrepo.com, Generator: SVG Repo Mixer Tools -->
<svg fill="#c0a84ee0" version="1.1" id="Layer_1" xmlns="http://www.w3.org/2000/svg" xmlns:xlink="http://www.w3.org/1999/xlink" 
	 viewBox="0 0 512 512" xml:space="preserve">
<g>
	<g>
		<g>
			<path d="M42.667,332.8h17.067c4.719,0,8.533-3.823,8.533-8.533s-3.814-8.533-8.533-8.533H42.667
				c-4.719,0-8.533,3.823-8.533,8.533S37.948,332.8,42.667,332.8z"/>
			<path d="M128,315.734H93.867c-4.719,0-8.533,3.823-8.533,8.533s3.814,8.533,8.533,8.533H128c4.719,0,8.533-3.823,8.533-8.533
				S132.719,315.734,128,315.734z"/>
			<path d="M128,349.867h-17.067c-4.719,0-8.533,3.823-8.533,8.533s3.814,8.533,8.533,8.533H128c4.719,0,8.533-3.823,8.533-8.533
				S132.719,349.867,128,349.867z"/>
			<path d="M76.8,349.867H42.667c-4.719,0-8.533,3.823-8.533,8.533s3.814,8.533,8.533,8.533H76.8c4.719,0,8.533-3.823,8.533-8.533
				S81.519,349.867,76.8,349.867z"/>
			<path d="M506.735,188.381l-88.602-36.659V76.8h8.533c4.719,0,8.533-3.823,8.533-8.533V34.133c0-4.71-3.814-8.533-8.533-8.533
				H307.2c-4.719,0-8.533,3.823-8.533,8.533v34.133c0,4.71,3.814,8.533,8.533,8.533h8.533v32.546l-56.465-23.364
				c-2.099-0.862-4.437-0.862-6.536,0L5.265,188.381C2.082,189.704,0,192.81,0,196.266v42.667c0,2.85,1.425,5.513,3.789,7.1
				c2.381,1.579,5.376,1.877,8.013,0.785l13.798-5.709V281.6C11.486,281.6,0,293.085,0,307.2v68.267c0,14.114,11.486,25.6,25.6,25.6
				v25.6h51.2v-25.6h17.067v25.6h102.4v-102.4c0-4.71,3.814-8.533,8.533-8.533h102.4c4.719,0,8.533,3.823,8.533,8.533v102.4H486.4
				V241.109l13.798,5.709c1.05,0.435,2.159,0.649,3.268,0.649c1.664,0,3.319-0.486,4.745-1.434c2.364-1.587,3.789-4.25,3.789-7.1
				v-42.667C512,192.81,509.918,189.704,506.735,188.381z M315.733,42.666h102.4v17.067H409.6h-85.333h-8.533V42.666z M401.067,76.8
				v67.857l-24.09-9.967L332.8,116.411V76.8H401.067z M153.6,375.466c0,4.702-3.823,8.533-8.533,8.533H85.333h-51.2H25.6
				c-4.71,0-8.533-3.831-8.533-8.533V307.2c0-4.702,3.823-8.533,8.533-8.533h8.533h110.933c4.71,0,8.533,3.831,8.533,8.533V375.466z
				 M315.733,264.533H307.2H204.8h-8.533c-4.719,0-8.533-3.823-8.533-8.533c0-4.71,3.814-8.533,8.533-8.533v-59.733
				c0-4.71,3.814-8.533,8.533-8.533h102.4c4.719,0,8.533,3.823,8.533,8.533v59.733c4.719,0,8.533,3.823,8.533,8.533
				C324.267,260.71,320.452,264.533,315.733,264.533z M452.267,392.533h-8.533h-102.4H332.8c-4.719,0-8.533-3.823-8.533-8.533
				s3.814-8.533,8.533-8.533V281.6c0-4.71,3.814-8.533,8.533-8.533h102.4c4.719,0,8.533,3.823,8.533,8.533v93.867
				c4.719,0,8.533,3.823,8.533,8.533S456.986,392.533,452.267,392.533z M494.933,226.167l-235.665-97.519
				c-1.05-0.435-2.159-0.649-3.268-0.649s-2.219,0.213-3.268,0.649L17.067,226.167v-24.192L256,103.099l64.981,26.889
				c0.008,0.009,0.008,0.009,0.017,0.009l85.333,35.311l88.602,36.668V226.167z"/>
			<rect x="349.867" y="332.8" width="34.133" height="42.667"/>
			<rect x="213.333" y="196.267" width="34.133" height="51.2"/>
			<rect x="349.867" y="290.134" width="34.133" height="25.6"/>
			<rect x="264.533" y="196.267" width="34.133" height="51.2"/>
			<rect x="401.067" y="290.134" width="34.133" height="25.6"/>
			<rect x="401.067" y="332.8" width="34.133" height="42.667"/>
			<path d="M315.733,486.4h162.133c4.719,0,8.533-3.823,8.533-8.533v-34.133H315.733V486.4z"/>
			<path d="M213.333,486.4h85.333V332.8h-85.333V486.4z M273.067,392.534h8.533c4.719,0,8.533,3.823,8.533,8.533
				c0,4.71-3.814,8.533-8.533,8.533h-8.533c-4.719,0-8.533-3.823-8.533-8.533C264.533,396.357,268.348,392.534,273.067,392.534z"/>
			<rect x="93.867" y="443.734" width="102.4" height="42.667"/>
			<path d="M25.6,477.867c0,4.71,3.814,8.533,8.533,8.533H76.8v-42.667H25.6V477.867z"/>
		</g>
	</g>
</g>
</svg>