<?xml version="1.0" encoding="iso-8859-1"?>
<!-- Uploaded to: SVG Repo, www.svgrepo.com, Generator: SVG Repo Mixer Tools -->
<svg fill="#000000" height="800px" width="800px" version="1.1" id="Layer_1" xmlns="http://www.w3.org/2000/svg" xmlns:xlink="http://www.w3.org/1999/xlink" 
	 viewBox="0 0 511.902 511.902" xml:space="preserve">
<g>
	<g>
		<path d="M119.5,307.201H51.2c-4.7,0-8.5,3.8-8.5,8.5v102.4c0,4.7,3.8,8.5,8.5,8.5h68.3c4.7,0,8.5-3.8,8.5-8.5v-102.4
			C128,311.001,124.2,307.201,119.5,307.201z M76.8,409.601H59.7v-85.3h17.1V409.601z M111,409.601h-0.1h-17v-85.3H111V409.601z"/>
	</g>
</g>
<g>
	<g>
		<path d="M460.8,307.201h-68.3c-4.7,0-8.5,3.8-8.5,8.5v102.4c0,4.7,3.8,8.5,8.5,8.5h68.3c4.7,0,8.5-3.8,8.5-8.5v-102.4
			C469.3,311.001,465.5,307.201,460.8,307.201z M418.1,409.601H401v-85.3h17.1V409.601z M452.3,409.601h-17.1v-85.3h17.1V409.601z"
			/>
	</g>
</g>
<g>
	<g>
		<path d="M503.5,204.801h-9.8l-15.9-95.3c-0.7-4.1-4.2-7.1-8.4-7.1H429L260.4,1.201c-2.7-1.6-6.1-1.6-8.8,0L83,102.401H42.7
			c-4.2,0-7.7,3-8.4,7.1l-15.9,95.3H8.5c-4.7,0-8.5,3.8-8.5,8.5v34.1c0,4.7,3.8,8.5,8.5,8.5H17v196.3v51.2c0,4.7,3.8,8.5,8.5,8.5
			h170.7h119.5h170.7c4.7,0,8.5-3.8,8.5-8.5v-51.2v-196.2h8.5c4.7,0,8.5-3.8,8.5-8.5v-34.1C512,208.601,508.2,204.801,503.5,204.801
			z M424.4,161.801c0.2,0.1,0.5,0.1,0.7,0.1c0.5,0.1,1,0.2,1.5,0.2c0,0,0,0,0.1,0c0.5,0,1-0.1,1.5-0.2c0.2,0,0.5,0,0.7-0.1
			c0.7-0.2,1.4-0.5,2.1-0.8c2.7-1.5,4.3-4.4,4.3-7.4v-34.1h26.9l14.2,85.3h-66.7v-51.5l12.7,7.6
			C422.9,161.301,423.7,161.601,424.4,161.801z M93.9,115.801l162.1-97.3l162.1,97.3v22.8l-157.7-94.7c-2.7-1.6-6.1-1.6-8.8,0
			l-157.7,94.6V115.801z M49.9,119.501h26.9v34.1c0,3.1,1.6,5.9,4.3,7.4c2.7,1.5,6,1.5,8.6-0.1l12.7-7.6v51.5H35.7L49.9,119.501z
			 M17.1,238.901v-17.1h8.5h76.8v17.1H25.6H17.1z M136.5,443.701H34.1v-187.7h68.3v25.6c0,4.7,3.8,8.5,8.5,8.5h25.6V443.701z
			 M170.7,443.701h-17.1v-153.6h17.1V443.701z M204.8,494.901v-34.1h8.5h85.3h8.5v34.1H204.8z M256,392.501c0-4.7,3.8-8.5,8.5-8.5
			h8.5c4.7,0,8.5,3.8,8.5,8.5s-3.8,8.5-8.5,8.5h-8.5C259.8,401.101,256,397.201,256,392.501z M324.5,443.701h-0.2h-8.5h-8.5v-128
			c0-4.7-3.8-8.5-8.5-8.5h-85.3c-4.7,0-8.5,3.8-8.5,8.5v128h-8.5H188v-153.6h136.5V443.701z M358.4,443.701h-17.1v-153.6h17.1
			V443.701z M358.4,230.401c0,4.7-3.8,8.5-8.5,8.5H162.1c-4.7,0-8.5-3.8-8.5-8.5v-8.5c0-13,2.5-25.3,6.9-36.7
			c0.1-0.4,0.2-0.8,0.4-1.1c15.1-37.8,52-64.5,95.1-64.5c43.1,0,80,26.8,95.1,64.5c0.2,0.4,0.3,0.7,0.4,1.1
			c4.4,11.4,6.9,23.8,6.9,36.7V230.401z M477.9,443.701H375.5v-153.6h25.6c4.7,0,8.5-3.8,8.5-8.5v-25.6h68.3V443.701z
			 M486.4,238.901h-76.8v-17.1h76.8h8.5v17.1H486.4z"/>
	</g>
</g>
<g>
	<g>
		<path d="M264.5,137.001v42.2h65.3C316.4,156.101,292.4,139.801,264.5,137.001z"/>
	</g>
</g>
<g>
	<g>
		<path d="M174.6,196.301c-2.5,8.1-3.9,16.7-3.9,25.6h76.8v-25.6H174.6z"/>
	</g>
</g>
<g>
	<g>
		<path d="M182.2,179.201h65.3v-42.2C219.6,139.801,195.6,156.101,182.2,179.201z"/>
	</g>
</g>
<g>
	<g>
		<path d="M337.4,196.301h-72.9v25.6h76.8C341.3,213.001,339.9,204.401,337.4,196.301z"/>
	</g>
</g>
</svg>