<svg id="Capa_1" data-name="Capa 1" xmlns="http://www.w3.org/2000/svg" viewBox="0 0 280 274.52"><defs><style>.cls-1{fill:#fff;}.cls-2{fill:#ceaa3c;}.cls-3,.cls-7,.cls-8{fill:#b78423;}.cls-4{fill:#be8f24;}.cls-5{fill:#cc992e;}.cls-6{font-size:15.52px;fill:#010101;font-family:Mont-Light, Mont;font-weight:300;}.cls-7{letter-spacing:0em;}.cls-8{font-family:Mont-Black, Mont;font-weight:800;}</style></defs><rect class="cls-1" width="280" height="274.52"/><path class="cls-2" d="M182.55,167.28q-12.63.08-25.26.16a2.26,2.26,0,0,1-1.75-.73c-4.07-4.12-8.2-8.15-12.22-12.31-2.74-2.83-5.58-5.55-8.31-8.39-3.13-3.27-6.44-6.36-9.59-9.61s-6.3-6.28-9.43-9.45c-.19-.19-.53-.38-.35-.68s.5-.23.78-.2a27.19,27.19,0,0,0,3.61.05q22.75-.11,45.53-.25a3.21,3.21,0,0,0,.76,0c1.39-.38,2.26.34,3.17,1.28,4.54,4.64,9.14,9.23,13.72,13.84,2.39,2.41,4.77,4.84,7.17,7.25,3.52,3.52,7.1,7,10.57,10.56,2.45,2.51,5,5,7.4,7.47.2.2.61.38.46.71s-.55.17-.85.17l-25.41.15Z"/><path class="cls-3" d="M172.11,197.78l-24.08.13a9.2,9.2,0,0,1-1.05,0c-1.76-.17-2.19-.57-2.28-2.24-.51-9.52-1.26-19-1.07-28.57,0-.14,0-.29,0-.43s-.08-.46.12-.56.41.15.56.3l4.7,4.65c1.09,1.08,2.21,2.14,3.27,3.25a2.16,2.16,0,0,0,1.76.7l41.3-.24c1.33,0,1.36,0,1.43,1.29.16,3.07.28,6.14.44,9.2.18,3.76.39,7.52.57,11.28.05,1.11,0,1.1-1.06,1.11Z"/><path class="cls-4" d="M88.63,170.23c-1.48.08-3.28-.1-5.07.12-.24,0-.56.05-.68-.18s.18-.42.34-.58c4-4.07,8-8.11,11.88-12.22,3.61-3.78,7.34-7.43,10.92-11.23,2.82-3,5.76-5.85,8.58-8.83.41-.43.68-.43,1.06,0,1.54,1.57,3.09,3.15,4.66,4.69.47.46.51.76,0,1.25q-6.51,6.63-13,13.31-6.28,6.48-12.52,13a2,2,0,0,1-1.65.7C91.77,170.18,90.35,170.22,88.63,170.23Z"/><path class="cls-5" d="M112.37,165c0,.5,0,1,0,1.5s-.13.52-.5.52l-3,0c-.27,0-.33-.16-.33-.38,0-1,0-2.07,0-3.1,0-.32.15-.45.46-.45h3c.31,0,.45.11.43.44,0,.5,0,1,0,1.5Z"/><path class="cls-5" d="M117.08,165c0,.52,0,1,0,1.55,0,.26-.09.39-.38.39-.95,0-1.89,0-2.83.05-.47,0-.69-.12-.67-.63,0-.91,0-1.82,0-2.73,0-.43.13-.62.58-.61.91,0,1.82,0,2.73,0,.46,0,.6.19.58.61s0,.93,0,1.39Z"/><path class="cls-5" d="M113.24,169.81c0-.5,0-1,0-1.5s.16-.59.54-.55c1,.11,2,.05,2.94.07.27,0,.39.14.4.4,0,1,0,2,0,3.05,0,.29-.15.42-.44.42-1,0-2.07,0-3.1,0-.27,0-.34-.13-.34-.37C113.25,170.84,113.24,170.33,113.24,169.81Z"/><path class="cls-5" d="M108.52,169.79c0-.47,0-.93,0-1.39s.11-.53.48-.54a22.64,22.64,0,0,0,2.73-.09c.45-.06.69.15.67.65,0,.91,0,1.82,0,2.73,0,.44-.17.59-.6.59-.89,0-1.79,0-2.68,0-.47,0-.63-.17-.61-.63S108.52,170.23,108.52,169.79Z"/><path class="cls-5" d="M131.87,165c0,.5,0,1,0,1.5s-.13.52-.5.52l-3,0c-.28,0-.33-.16-.33-.38,0-1,0-2.07,0-3.1,0-.32.15-.45.46-.45h3c.32,0,.45.11.44.44,0,.5,0,1,0,1.5Z"/><path class="cls-5" d="M136.59,165v1.55c0,.26-.09.39-.38.39-.94,0-1.89,0-2.83.05-.47,0-.68-.12-.67-.63,0-.91,0-1.82,0-2.73,0-.43.13-.62.58-.61.91,0,1.82,0,2.73,0,.45,0,.59.19.58.61s0,.93,0,1.39Z"/><path class="cls-5" d="M132.74,169.81c0-.5,0-1,0-1.5s.16-.59.54-.55c1,.11,2,.05,2.94.07a.35.35,0,0,1,.39.4c0,1,0,2,0,3.05a.37.37,0,0,1-.43.42l-3.11,0c-.26,0-.33-.13-.33-.37C132.75,170.84,132.74,170.33,132.74,169.81Z"/><path class="cls-5" d="M128,169.79c0-.47,0-.93,0-1.39s.11-.53.49-.54a22.41,22.41,0,0,0,2.72-.09c.46-.06.69.15.68.65,0,.91,0,1.82,0,2.73,0,.44-.17.59-.6.59-.89,0-1.78,0-2.67,0-.48,0-.64-.17-.62-.63S128,170.23,128,169.79Z"/><path class="cls-4" d="M136.15,188.25a50.21,50.21,0,0,0-26.62,0,2.19,2.19,0,0,1-2.18-2.18h0a2.18,2.18,0,0,1,2.18-2.18,47.61,47.61,0,0,1,26.62,0,2.18,2.18,0,0,1,2.18,2.18h0A2.19,2.19,0,0,1,136.15,188.25Z"/><text class="cls-6" transform="translate(57.69 110.74)">Imagen no<tspan class="cls-7" x="84.42" y="0"> </tspan><tspan class="cls-8" x="88.69" y="0">disponible</tspan></text></svg>