<?xml version="1.0" encoding="iso-8859-1"?>
<!-- Uploaded to: SVG Repo, www.svgrepo.com, Generator: SVG Repo Mixer Tools -->
<svg fill="#000000" height="800px" width="800px" version="1.1" id="Layer_1" xmlns="http://www.w3.org/2000/svg" xmlns:xlink="http://www.w3.org/1999/xlink" 
	 viewBox="0 0 512 512" xml:space="preserve">
<g>
	<g>
		<g>
			<path d="M503.467,362.667c4.719,0,8.533-3.823,8.533-8.533V320c0-4.71-3.814-8.533-8.533-8.533h-25.6V149.333h8.533
				c3.174,0,6.084-1.766,7.561-4.574c1.476-2.807,1.263-6.204-0.546-8.823l-76.8-110.933c-1.587-2.295-4.215-3.669-7.014-3.669
				h-54.955l76.501,110.933h-20.736L333.909,21.333h-37.726l75.273,110.933h-20.625L275.55,21.333h-39.1l75.273,110.933h-20.625
				L215.817,21.333h-40.678l76.8,110.933h-20.762l-76.8-110.933h-43.443c-0.102,0-0.188,0.034-0.29,0.034
				c-0.666,0.009-1.314,0.094-1.954,0.273c-0.077,0.026-0.145,0.051-0.222,0.077c-0.597,0.188-1.161,0.427-1.707,0.742
				c-0.188,0.102-0.367,0.222-0.546,0.35c-0.393,0.265-0.759,0.563-1.109,0.896c-0.205,0.196-0.401,0.384-0.589,0.606
				c-0.111,0.119-0.247,0.222-0.341,0.35L18.842,135.595c-1.988,2.577-2.33,6.059-0.896,8.977c1.434,2.91,4.403,4.762,7.654,4.762
				h8.533v162.133h-25.6C3.823,311.467,0,315.29,0,320v34.133c0,4.71,3.823,8.533,8.533,8.533h25.6v59.776
				c-7.083-0.572-14.242-2.62-20.736-7.134c-2.603-1.818-6.007-2.022-8.815-0.555C1.766,416.23,0,419.14,0,422.315v59.819
				c0,4.71,3.823,8.533,8.533,8.533h494.933c2.27,0,4.446-0.905,6.042-2.509c1.604-1.604,2.492-3.772,2.492-6.042l-0.085-59.81
				c0-2.944-1.519-5.683-4.028-7.236s-5.649-1.698-8.277-0.401c-6.417,3.157-13.918,5.734-21.743,7.04v-59.042H503.467z
				 M110.566,44.331l60.877,87.936H42.931L110.566,44.331z M68.267,416.026c-0.068,0.026-0.137,0.051-0.205,0.077
				c-2.756,1.152-5.521,2.159-8.286,3.012c-0.06,0.017-0.119,0.034-0.179,0.051c-2.816,0.862-5.623,1.57-8.397,2.108v-58.607h17.067
				V416.026z M153.6,414.089c-19.686-8.26-46.677-11.622-68.267-5.282v-46.14H153.6V414.089z M153.6,174.933H76.8
				c-4.71,0-8.533,3.823-8.533,8.533V243.2H102.4c4.71,0,8.533,3.823,8.533,8.533s-3.823,8.533-8.533,8.533H68.267v51.2H51.2
				V149.333h128v162.133h-17.067v-128C162.133,178.756,158.31,174.933,153.6,174.933z M187.733,422.221
				c-6.016,0.563-11.767,0.256-17.067-0.913v-58.641h17.067V422.221z M298.667,415.181c-0.324-0.213-0.649-0.418-0.998-0.58
				c-22.997-10.854-61.798-13.756-83.593,0.085c-2.816,1.417-5.982,2.662-9.276,3.806v-55.825h93.867V415.181z M332.8,421.794
				c-0.068,0.009-0.136,0.017-0.196,0.026c-2.91,0.367-5.76,0.555-8.533,0.546h-0.102c-2.833-0.026-5.589-0.247-8.235-0.674v-59.025
				H332.8V421.794z M426.667,409.062c-23.458-6.963-51.627-3.191-69.734,5.572c-2.202,1.058-4.582,2.048-7.066,2.961v-54.929h76.8
				V409.062z M460.8,422.118c-0.93-0.111-1.852-0.265-2.782-0.435c-1.357-0.239-2.696-0.512-3.985-0.862
				c-1.493-0.41-2.97-0.905-4.42-1.468c-1.22-0.486-2.389-1.033-3.541-1.621c-0.794-0.401-1.562-0.853-2.338-1.306v-53.76H460.8
				V422.118z M460.8,311.467H196.267V149.333h51.209h59.733h59.733h59.733H460.8V311.467z"/>
			<path d="M401.067,174.933H256c-4.71,0-8.533,3.823-8.533,8.533V217.6v59.733c0,4.71,3.823,8.533,8.533,8.533h145.067
				c4.719,0,8.533-3.823,8.533-8.533V217.6v-34.133C409.6,178.756,405.786,174.933,401.067,174.933z M392.533,268.8h-128v-42.667
				h51.2V243.2c0,4.71,3.823,8.533,8.533,8.533s8.533-3.823,8.533-8.533v-17.067h59.733V268.8z"/>
		</g>
	</g>
</g>
</svg>