<?xml version="1.0" encoding="iso-8859-1"?>
<!-- Uploaded to: SVG Repo, www.svgrepo.com, Generator: SVG Repo Mixer Tools -->
<svg fill="#c0a84ee0" height="800px" width="800px" version="1.1" id="Layer_1" xmlns="http://www.w3.org/2000/svg" xmlns:xlink="http://www.w3.org/1999/xlink" 
	 viewBox="0 0 512 512" xml:space="preserve">
<g>
	<g>
		<g>
			<path d="M290.133,119.467h-68.267c-4.71,0-8.533,3.823-8.533,8.533v34.133c0,4.71,3.823,8.533,8.533,8.533h68.267
				c4.71,0,8.533-3.823,8.533-8.533V128C298.667,123.29,294.844,119.467,290.133,119.467z"/>
			<path d="M392.533,170.667c4.71,0,8.533-3.823,8.533-8.533V128c0-4.71-3.823-8.533-8.533-8.533H384v-25.6
				c0-4.71-3.823-8.533-8.533-8.533h-25.6V51.2c0-4.71-3.823-8.533-8.533-8.533h-42.667V25.6c0-4.71-3.823-8.533-8.533-8.533
				c-4.71,0-8.533,3.823-8.533,8.533v17.067h-17.067V8.533C264.533,3.823,260.71,0,256,0c-4.71,0-8.533,3.823-8.533,8.533v34.133
				H230.4v-25.6c0-4.71-3.823-8.533-8.533-8.533c-4.71,0-8.533,3.823-8.533,8.533v25.6h-42.667c-4.71,0-8.533,3.823-8.533,8.533
				v34.133h-25.6c-4.71,0-8.533,3.823-8.533,8.533v25.6h-8.533c-4.71,0-8.533,3.823-8.533,8.533v34.133
				c0,4.71,3.823,8.533,8.533,8.533H128v17.067h-8.533c-4.71,0-8.533,3.823-8.533,8.533V230.4c0,4.71,3.823,8.533,8.533,8.533H128
				V256h-8.533c-4.71,0-8.533,3.823-8.533,8.533v34.133c0,4.71,3.823,8.533,8.533,8.533H128v17.067h-8.533
				c-4.71,0-8.533,3.823-8.533,8.533v34.133c0,4.71,3.823,8.533,8.533,8.533H128v17.067h-8.533c-4.71,0-8.533,3.823-8.533,8.533
				V435.2c0,4.71,3.823,8.533,8.533,8.533H128V460.8h-8.533c-4.71,0-8.533,3.823-8.533,8.533v34.133c0,4.71,3.823,8.533,8.533,8.533
				h68.267h34.133h68.267h34.133h68.267c4.71,0,8.533-3.823,8.533-8.533v-34.133c0-4.71-3.823-8.533-8.533-8.533H384v-17.067h8.533
				c4.71,0,8.533-3.823,8.533-8.533v-34.133c0-4.71-3.823-8.533-8.533-8.533H384v-17.067h8.533c4.71,0,8.533-3.823,8.533-8.533
				V332.8c0-4.71-3.823-8.533-8.533-8.533H384V307.2h8.533c4.71,0,8.533-3.823,8.533-8.533v-34.133c0-4.71-3.823-8.533-8.533-8.533
				H384v-17.067h8.533c4.71,0,8.533-3.823,8.533-8.533v-34.133c0-4.71-3.823-8.533-8.533-8.533H384v-17.067H392.533z
				 M366.933,119.467h-42.667c-4.71,0-8.533,3.823-8.533,8.533v34.133c0,4.71,3.823,8.533,8.533,8.533h42.667v17.067h-42.667
				c-4.71,0-8.533,3.823-8.533,8.533V230.4c0,4.71,3.823,8.533,8.533,8.533h42.667V256h-42.667c-4.71,0-8.533,3.823-8.533,8.533
				v34.133c0,4.71,3.823,8.533,8.533,8.533h42.667v17.067h-42.667c-4.71,0-8.533,3.823-8.533,8.533v34.133
				c0,4.71,3.823,8.533,8.533,8.533h42.667v17.067h-42.667c-4.71,0-8.533,3.823-8.533,8.533V435.2c0,4.71,3.823,8.533,8.533,8.533
				h42.667V460.8h-42.667c-4.71,0-8.533,3.823-8.533,8.533v25.6h-17.067v-25.6c0-4.71-3.823-8.533-8.533-8.533h-68.267
				c-4.71,0-8.533,3.823-8.533,8.533v25.6h-17.067v-25.6c0-4.71-3.823-8.533-8.533-8.533h-42.667v-17.067h42.667
				c4.71,0,8.533-3.823,8.533-8.533v-34.133c0-4.71-3.823-8.533-8.533-8.533h-42.667v-17.067h42.667c4.71,0,8.533-3.823,8.533-8.533
				V332.8c0-4.71-3.823-8.533-8.533-8.533h-42.667V307.2h42.667c4.71,0,8.533-3.823,8.533-8.533v-34.133
				c0-4.71-3.823-8.533-8.533-8.533h-42.667v-17.067h42.667c4.71,0,8.533-3.823,8.533-8.533v-34.133c0-4.71-3.823-8.533-8.533-8.533
				h-42.667v-17.067h42.667c4.71,0,8.533-3.823,8.533-8.533V128c0-4.71-3.823-8.533-8.533-8.533h-42.667V102.4h25.6h170.667h25.6
				V119.467z"/>
			<path d="M290.133,187.733h-68.267c-4.71,0-8.533,3.823-8.533,8.533V230.4c0,4.71,3.823,8.533,8.533,8.533h68.267
				c4.71,0,8.533-3.823,8.533-8.533v-34.133C298.667,191.556,294.844,187.733,290.133,187.733z"/>
			<path d="M290.133,256h-68.267c-4.71,0-8.533,3.823-8.533,8.533v34.133c0,4.71,3.823,8.533,8.533,8.533h68.267
				c4.71,0,8.533-3.823,8.533-8.533v-34.133C298.667,259.823,294.844,256,290.133,256z"/>
			<path d="M290.133,324.267h-68.267c-4.71,0-8.533,3.823-8.533,8.533v34.133c0,4.71,3.823,8.533,8.533,8.533h68.267
				c4.71,0,8.533-3.823,8.533-8.533V332.8C298.667,328.09,294.844,324.267,290.133,324.267z"/>
			<path d="M290.133,392.533h-68.267c-4.71,0-8.533,3.823-8.533,8.533V435.2c0,4.71,3.823,8.533,8.533,8.533h68.267
				c4.71,0,8.533-3.823,8.533-8.533v-34.133C298.667,396.356,294.844,392.533,290.133,392.533z"/>
		</g>
	</g>
</g>
</svg>